<mxfile host="app.diagrams.net" modified="2022-02-25T15:01:30.775Z" agent="5.0 (Windows NT 10.0; Win64; x64) AppleWebKit/537.36 (KHTML, like Gecko) Chrome/98.0.4758.102 Safari/537.36" etag="P1O2vXjQX25WbkWDzPPN" version="16.6.4" type="github">
  <diagram id="6a731a19-8d31-9384-78a2-239565b7b9f0" name="Page-1">
    <mxGraphModel dx="1826" dy="770" grid="1" gridSize="10" guides="1" tooltips="1" connect="1" arrows="1" fold="1" page="1" pageScale="1" pageWidth="1169" pageHeight="827" background="none" math="0" shadow="0">
      <root>
        <mxCell id="0" />
        <mxCell id="1" parent="0" />
        <mxCell id="2" value="start" style="shape=mxgraph.flowchart.terminator;strokeWidth=2;gradientColor=none;gradientDirection=north;fontStyle=0;html=1;" parent="1" vertex="1">
          <mxGeometry x="260" y="60" width="120" height="30" as="geometry" />
        </mxCell>
        <mxCell id="p3SirX-CY9NeIMHfnKnI-57" style="edgeStyle=orthogonalEdgeStyle;rounded=0;orthogonalLoop=1;jettySize=auto;html=1;entryX=0.5;entryY=0;entryDx=0;entryDy=0;" parent="1" source="3" target="p3SirX-CY9NeIMHfnKnI-55" edge="1">
          <mxGeometry relative="1" as="geometry" />
        </mxCell>
        <mxCell id="3" value="Monitor Humidity" style="shape=mxgraph.flowchart.data;strokeWidth=2;gradientColor=none;gradientDirection=north;fontStyle=0;html=1;" parent="1" vertex="1">
          <mxGeometry x="240.5" y="130" width="159" height="80" as="geometry" />
        </mxCell>
        <mxCell id="p3SirX-CY9NeIMHfnKnI-67" style="edgeStyle=orthogonalEdgeStyle;rounded=0;orthogonalLoop=1;jettySize=auto;html=1;entryX=0;entryY=0.5;entryDx=0;entryDy=0;entryPerimeter=0;" parent="1" source="4" target="p3SirX-CY9NeIMHfnKnI-66" edge="1">
          <mxGeometry relative="1" as="geometry">
            <Array as="points">
              <mxPoint x="120" y="925" />
            </Array>
          </mxGeometry>
        </mxCell>
        <mxCell id="4" value="Water Pump ON" style="shape=mxgraph.flowchart.data;strokeWidth=2;gradientColor=none;gradientDirection=north;fontStyle=0;html=1;" parent="1" vertex="1">
          <mxGeometry x="54.5" y="680" width="159" height="80" as="geometry" />
        </mxCell>
        <mxCell id="p3SirX-CY9NeIMHfnKnI-61" style="edgeStyle=orthogonalEdgeStyle;rounded=0;orthogonalLoop=1;jettySize=auto;html=1;entryX=0.5;entryY=0;entryDx=0;entryDy=0;entryPerimeter=0;" parent="1" source="6" target="4" edge="1">
          <mxGeometry relative="1" as="geometry" />
        </mxCell>
        <mxCell id="p3SirX-CY9NeIMHfnKnI-63" style="edgeStyle=orthogonalEdgeStyle;rounded=0;orthogonalLoop=1;jettySize=auto;html=1;entryX=0;entryY=0.5;entryDx=0;entryDy=0;entryPerimeter=0;" parent="1" source="6" target="p3SirX-CY9NeIMHfnKnI-62" edge="1">
          <mxGeometry relative="1" as="geometry" />
        </mxCell>
        <mxCell id="6" value="HUM &amp;lt; 65%" style="shape=mxgraph.flowchart.decision;strokeWidth=2;gradientColor=none;gradientDirection=north;fontStyle=0;html=1;" parent="1" vertex="1">
          <mxGeometry x="250" y="500" width="140" height="80" as="geometry" />
        </mxCell>
        <mxCell id="7" style="fontStyle=1;strokeColor=#003366;strokeWidth=1;html=1;" parent="1" source="2" target="3" edge="1">
          <mxGeometry relative="1" as="geometry" />
        </mxCell>
        <mxCell id="11" value="yes" style="text;fontStyle=0;html=1;strokeColor=none;gradientColor=none;fillColor=none;strokeWidth=2;" parent="1" vertex="1">
          <mxGeometry x="213.5" y="550" width="40" height="26" as="geometry" />
        </mxCell>
        <mxCell id="14" value="no" style="text;fontStyle=0;html=1;strokeColor=none;gradientColor=none;fillColor=none;strokeWidth=2;align=center;" parent="1" vertex="1">
          <mxGeometry x="380" y="500" width="40" height="26" as="geometry" />
        </mxCell>
        <mxCell id="p3SirX-CY9NeIMHfnKnI-60" style="edgeStyle=orthogonalEdgeStyle;rounded=0;orthogonalLoop=1;jettySize=auto;html=1;entryX=0.5;entryY=0;entryDx=0;entryDy=0;entryPerimeter=0;" parent="1" source="p3SirX-CY9NeIMHfnKnI-55" target="6" edge="1">
          <mxGeometry relative="1" as="geometry" />
        </mxCell>
        <mxCell id="p3SirX-CY9NeIMHfnKnI-55" value="HUM = DHT.hum" style="rounded=0;whiteSpace=wrap;html=1;" parent="1" vertex="1">
          <mxGeometry x="196" y="320" width="248" height="60" as="geometry" />
        </mxCell>
        <mxCell id="p3SirX-CY9NeIMHfnKnI-65" style="edgeStyle=orthogonalEdgeStyle;rounded=0;orthogonalLoop=1;jettySize=auto;html=1;entryX=0.5;entryY=0;entryDx=0;entryDy=0;entryPerimeter=0;" parent="1" source="p3SirX-CY9NeIMHfnKnI-62" target="p3SirX-CY9NeIMHfnKnI-64" edge="1">
          <mxGeometry relative="1" as="geometry" />
        </mxCell>
        <mxCell id="p3SirX-CY9NeIMHfnKnI-68" style="edgeStyle=orthogonalEdgeStyle;rounded=0;orthogonalLoop=1;jettySize=auto;html=1;" parent="1" source="p3SirX-CY9NeIMHfnKnI-62" edge="1">
          <mxGeometry relative="1" as="geometry">
            <mxPoint x="120" y="830" as="targetPoint" />
            <Array as="points">
              <mxPoint x="860" y="540" />
              <mxPoint x="860" y="830" />
            </Array>
          </mxGeometry>
        </mxCell>
        <mxCell id="p3SirX-CY9NeIMHfnKnI-62" value="HUM &amp;gt; 70%" style="shape=mxgraph.flowchart.decision;strokeWidth=2;gradientColor=none;gradientDirection=north;fontStyle=0;html=1;" parent="1" vertex="1">
          <mxGeometry x="552" y="500" width="140" height="80" as="geometry" />
        </mxCell>
        <mxCell id="p3SirX-CY9NeIMHfnKnI-69" style="edgeStyle=orthogonalEdgeStyle;rounded=0;orthogonalLoop=1;jettySize=auto;html=1;" parent="1" source="p3SirX-CY9NeIMHfnKnI-64" edge="1">
          <mxGeometry relative="1" as="geometry">
            <mxPoint x="622" y="830" as="targetPoint" />
          </mxGeometry>
        </mxCell>
        <mxCell id="p3SirX-CY9NeIMHfnKnI-64" value="Water Pump OFF" style="shape=mxgraph.flowchart.data;strokeWidth=2;gradientColor=none;gradientDirection=north;fontStyle=0;html=1;" parent="1" vertex="1">
          <mxGeometry x="542.5" y="680" width="159" height="80" as="geometry" />
        </mxCell>
        <mxCell id="p3SirX-CY9NeIMHfnKnI-66" value="start" style="shape=mxgraph.flowchart.terminator;strokeWidth=2;gradientColor=none;gradientDirection=north;fontStyle=0;html=1;" parent="1" vertex="1">
          <mxGeometry x="320" y="910" width="120" height="30" as="geometry" />
        </mxCell>
        <mxCell id="p3SirX-CY9NeIMHfnKnI-70" value="yes" style="text;fontStyle=0;html=1;strokeColor=none;gradientColor=none;fillColor=none;strokeWidth=2;" parent="1" vertex="1">
          <mxGeometry x="630" y="594" width="40" height="26" as="geometry" />
        </mxCell>
        <mxCell id="p3SirX-CY9NeIMHfnKnI-71" value="no" style="text;fontStyle=0;html=1;strokeColor=none;gradientColor=none;fillColor=none;strokeWidth=2;align=center;" parent="1" vertex="1">
          <mxGeometry x="701.5" y="500" width="40" height="26" as="geometry" />
        </mxCell>
      </root>
    </mxGraphModel>
  </diagram>
</mxfile>
